<svg xmlns="http://www.w3.org/2000/svg" width="34" height="34" viewBox="0 0 34 34" fill="none">
  <rect width="34" height="34" rx="4" fill="url(#paint0_linear_804_1195)"/>
  <rect x="0.5" y="0.5" width="33" height="33" rx="3.5" stroke="white" stroke-opacity="0.15"/>
  <path d="M20.6 24.2V9.8H9.8V23.3C9.8 23.5387 9.89482 23.7676 10.0636 23.9364C10.2324 24.1052 10.4613 24.2 10.7 24.2H20.6ZM23.3 26H10.7C9.98392 26 9.29716 25.7155 8.79081 25.2092C8.28446 24.7028 8 24.0161 8 23.3V8.9C8 8.66131 8.09482 8.43239 8.2636 8.2636C8.43239 8.09482 8.66131 8 8.9 8H21.5C21.7387 8 21.9676 8.09482 22.1364 8.2636C22.3052 8.43239 22.4 8.66131 22.4 8.9V15.2H26V23.3C26 24.0161 25.7155 24.7028 25.2092 25.2092C24.7028 25.7155 24.0161 26 23.3 26ZM22.4 17V23.3C22.4 23.5387 22.4948 23.7676 22.6636 23.9364C22.8324 24.1052 23.0613 24.2 23.3 24.2C23.5387 24.2 23.7676 24.1052 23.9364 23.9364C24.1052 23.7676 24.2 23.5387 24.2 23.3V17H22.4ZM11.6 11.6H17V17H11.6V11.6ZM13.4 13.4V15.2H15.2V13.4H13.4ZM11.6 17.9H18.8V19.7H11.6V17.9ZM11.6 20.6H18.8V22.4H11.6V20.6Z" fill="white"/>
  <defs>
    <linearGradient id="paint0_linear_804_1195" x1="17" y1="-13.8329" x2="17" y2="42.9425" gradientUnits="userSpaceOnUse">
      <stop stop-color="#A23B3B"/>
      <stop offset="1" stop-color="#A61E1E"/>
    </linearGradient>
  </defs>
</svg>