<svg xmlns="http://www.w3.org/2000/svg" width="12" height="13" viewBox="0 0 12 13" fill="none">
  <g clip-path="url(#clip0_806_3650)">
    <path d="M7.48537 6.78373C7.87946 6.47537 8.16711 6.05252 8.3083 5.574C8.4495 5.09549 8.43721 4.5851 8.27315 4.11385C8.10909 3.64261 7.80142 3.23393 7.39294 2.94468C6.98446 2.65544 6.49548 2.5 5.99404 2.5C5.49259 2.5 5.00362 2.65544 4.59514 2.94468C4.18666 3.23393 3.87898 3.64261 3.71492 4.11385C3.55087 4.5851 3.53858 5.09549 3.67977 5.574C3.82096 6.05252 4.10862 6.47537 4.50271 6.78373C3.82742 7.05279 3.23821 7.49906 2.79789 8.07495C2.35757 8.65085 2.08264 9.33478 2.00242 10.0538C1.99662 10.1063 2.00127 10.1595 2.0161 10.2102C2.03094 10.2609 2.05567 10.3082 2.08889 10.3494C2.15599 10.4326 2.25357 10.4859 2.36018 10.4976C2.46679 10.5092 2.5737 10.4783 2.65737 10.4116C2.74105 10.3449 2.79465 10.2478 2.80638 10.1418C2.89464 9.36032 3.26932 8.63858 3.85883 8.11448C4.44834 7.59037 5.21135 7.30064 6.00208 7.30064C6.7928 7.30064 7.55581 7.59037 8.14532 8.11448C8.73483 8.63858 9.10951 9.36032 9.19778 10.1418C9.20871 10.24 9.25584 10.3307 9.33007 10.3965C9.40431 10.4622 9.50038 10.4982 9.59975 10.4976H9.64397C9.74934 10.4855 9.84565 10.4325 9.91191 10.3502C9.97817 10.2678 10.009 10.1627 9.99771 10.0578C9.91711 9.33674 9.64071 8.65105 9.19812 8.07427C8.75554 7.49749 8.16346 7.05137 7.48537 6.78373ZM5.99404 6.49989C5.67603 6.49989 5.36515 6.40611 5.10074 6.2304C4.83632 6.05469 4.63023 5.80495 4.50853 5.51275C4.38683 5.22056 4.35499 4.89904 4.41703 4.58885C4.47907 4.27866 4.63221 3.99373 4.85708 3.77009C5.08195 3.54646 5.36845 3.39416 5.68035 3.33246C5.99225 3.27076 6.31555 3.30243 6.60935 3.42346C6.90316 3.54449 7.15428 3.74945 7.33096 4.01241C7.50764 4.27538 7.60194 4.58455 7.60194 4.90081C7.60194 5.32492 7.43254 5.73165 7.131 6.03153C6.82946 6.33142 6.42048 6.49989 5.99404 6.49989Z" fill="white"/>
  </g>
  <defs>
    <clipPath id="clip0_806_3650">
      <rect width="12" height="12" fill="white" transform="translate(0 0.5)"/>
    </clipPath>
  </defs>
</svg>