<svg xmlns="http://www.w3.org/2000/svg" width="24" height="24" viewBox="0 0 24 24" fill="none">
  <path fill-rule="evenodd" clip-rule="evenodd" d="M21.51 4.81C21.7825 5.53257 21.9247 6.29776 21.93 7.07C22 8.36 22 8.74 22 12C22 15.26 22 15.64 21.93 16.93C21.9244 17.7055 21.7823 18.4739 21.51 19.2C21.3102 19.7263 20.9999 20.2037 20.6 20.6C20.2018 21.0023 19.7206 21.3129 19.19 21.51C18.4674 21.7825 17.7022 21.9247 16.93 21.93C15.97 21.9821 15.514 21.9954 14 21.9988V22H10V21.9988C8.48601 21.9954 8.02998 21.9821 7.07 21.93C6.29776 21.9247 5.53257 21.7825 4.81 21.51C4.27939 21.3129 3.79819 21.0023 3.4 20.6C3.00013 20.2037 2.68983 19.7263 2.49 19.2C2.22277 18.4725 2.08076 17.705 2.07 16.93C2 15.64 2 15.26 2 12C2 8.74 2 8.36 2.07 7.07C2.07526 6.29776 2.21746 5.53257 2.49 4.81C2.69072 4.28126 3.00128 3.80109 3.40119 3.40119C3.80109 3.00128 4.28126 2.69072 4.81 2.49C5.53257 2.21746 6.29776 2.07526 7.07 2.07C8.36 2 8.74 2 12 2C15.26 2 15.64 2 16.93 2.07C17.7022 2.07526 18.4674 2.21746 19.19 2.49C19.7187 2.69072 20.1989 3.00128 20.5988 3.40119C20.9987 3.80109 21.3093 4.28126 21.51 4.81ZM16.584 8.59116C17.0721 8.53076 17.549 8.39836 18 8.19807C17.6769 8.70013 17.2708 9.14075 16.8 9.50018V9.82571C16.8072 10.7714 16.6303 11.7091 16.2795 12.584C15.9288 13.459 15.4112 14.2536 14.7571 14.9215C14.103 15.5893 13.3255 16.1171 12.4699 16.4739C11.6143 16.8307 10.6978 17.0094 9.774 16.9996C8.43529 17.0013 7.12466 16.6067 6 15.8633C6.19904 15.8886 6.39944 15.9009 6.6 15.9002C7.70153 15.897 8.77032 15.5165 9.636 14.8192C9.12335 14.8091 8.62652 14.6357 8.21464 14.323C7.80277 14.0104 7.49635 13.5741 7.338 13.0749C7.49065 13.1016 7.64513 13.116 7.8 13.1178C8.02373 13.1153 8.24595 13.0801 8.46 13.0134C7.90395 12.9002 7.40318 12.5938 7.04239 12.1462C6.6816 11.6985 6.48293 11.137 6.48 10.5566V10.5259C6.82193 10.7208 7.20479 10.8282 7.596 10.8391C7.25941 10.6093 6.98358 10.2977 6.79305 9.93231C6.60253 9.56689 6.50323 9.15892 6.504 8.74471C6.50371 8.29869 6.61748 7.86036 6.834 7.47331C7.45131 8.25193 8.22172 8.88891 9.09519 9.34286C9.96867 9.79681 10.9257 10.0576 11.904 10.1082C11.7764 9.56614 11.8281 8.99601 12.0511 8.48726C12.2742 7.97851 12.6558 7.55992 13.1363 7.29715C13.6167 7.03437 14.1688 6.94227 14.7059 7.03529C15.243 7.12831 15.7347 7.40118 16.104 7.81112C16.6565 7.69952 17.1861 7.49177 17.67 7.19691C17.4848 7.78089 17.0989 8.27627 16.584 8.59116Z" fill="white"/>
</svg>