<svg xmlns="http://www.w3.org/2000/svg" width="124" height="22" viewBox="0 0 124 22" fill="none">
  <g clip-path="url(#clip0_806_2585)">
    <path d="M0 16.941V1.35645H5.09556C6.78639 1.35645 8.05903 1.70645 8.91146 2.40544C9.7639 3.10444 10.1901 4.1394 10.1901 5.51031C10.1901 6.23839 9.98352 6.88123 9.56934 7.44183C9.15516 8.00243 8.59155 8.43567 7.87751 8.74255C8.71891 8.97822 9.38481 9.4265 9.87421 10.0864C10.3626 10.7463 10.6073 11.5325 10.6073 12.4471C10.6073 13.8461 10.154 14.9443 9.24842 15.7436C8.34183 16.5428 7.06117 16.942 5.40544 16.942H0V16.941ZM2.05487 8.00243H5.15874C6.05731 8.00243 6.77636 7.77679 7.3149 7.3265C7.85344 6.87622 8.12321 6.26447 8.12321 5.49226C8.12321 4.63481 7.87249 4.01003 7.37407 3.62092C6.87364 3.2308 6.11447 3.03624 5.09456 3.03624H2.05487V8.00243ZM2.05487 9.65114V15.2602H5.44756C6.4043 15.2602 7.15845 15.0125 7.71103 14.517C8.26361 14.0206 8.5404 13.3377 8.5404 12.4672C8.5404 10.5898 7.51948 9.65114 5.47966 9.65114H2.05487Z" fill="white"/>
    <path d="M18.1428 17.1538C16.5733 17.1538 15.2957 16.6374 14.3108 15.6064C13.326 14.5765 12.8336 13.1975 12.8336 11.4696V11.1066C12.8336 9.95728 13.0532 8.93135 13.4915 8.02877C13.9308 7.1272 14.5435 6.42018 15.3328 5.90972C16.121 5.40026 16.9755 5.14453 17.8961 5.14453C19.4014 5.14453 20.5717 5.63995 21.4061 6.63178C22.2415 7.62361 22.6587 9.04367 22.6587 10.892V11.7163H14.8133C14.8414 12.8576 15.1753 13.7802 15.8141 14.4832C16.453 15.1852 17.2643 15.5372 18.2491 15.5372C18.9481 15.5372 19.5408 15.3948 20.0262 15.109C20.5116 14.8242 20.9358 14.4451 21.2998 13.9748L22.5093 14.9154C21.5385 16.4067 20.0833 17.1538 18.1428 17.1538ZM17.8961 6.77018C17.0968 6.77018 16.4259 7.06101 15.8843 7.64267C15.3418 8.22433 15.0068 9.03966 14.8785 10.0877H20.68V9.93823C20.6229 8.93235 20.3521 8.15313 19.8667 7.59955C19.3813 7.04697 18.7244 6.77018 17.8971 6.77018H17.8961Z" fill="white"/>
    <path d="M27.6369 2.55469V5.3597H29.7991V6.88907H27.6369V14.0806C27.6369 14.5449 27.7332 14.8939 27.9258 15.1256C28.1183 15.3573 28.4462 15.4746 28.9106 15.4746C29.1392 15.4746 29.4531 15.4315 29.8523 15.3462V16.9418C29.3308 17.0842 28.8253 17.1554 28.3319 17.1554C27.4474 17.1554 26.7805 16.8866 26.3302 16.3521C25.8809 15.8166 25.6563 15.0564 25.6563 14.0726V6.89007H23.5472V5.3607H25.6563V2.55569L27.6369 2.55469Z" fill="white"/>
    <path d="M34.7974 2.55469V5.3597H36.9596V6.88907H34.7974V14.0806C34.7974 14.5449 34.8937 14.8939 35.0863 15.1256C35.2788 15.3573 35.6068 15.4746 36.0711 15.4746C36.2997 15.4746 36.6136 15.4315 37.0128 15.3462V16.9418C36.4913 17.0842 35.9858 17.1554 35.4924 17.1554C34.6079 17.1554 33.941 16.8866 33.4907 16.3521C33.0414 15.8166 32.8168 15.0564 32.8168 14.0726V6.89007H30.7078V5.3607H32.8168V2.55569L34.7974 2.55469Z" fill="white"/>
    <path d="M39.2823 2.2869C39.2823 1.96598 39.3806 1.69421 39.5761 1.47257C39.7717 1.25094 40.0635 1.14062 40.4486 1.14062C40.8337 1.14062 41.1266 1.25094 41.3261 1.47257C41.5257 1.69421 41.626 1.96498 41.626 2.2869C41.626 2.60882 41.5257 2.87558 41.3261 3.0902C41.1266 3.30381 40.8337 3.41011 40.4486 3.41011C40.0635 3.41011 39.7727 3.30381 39.5761 3.0902C39.3796 2.87558 39.2823 2.60882 39.2823 2.2869ZM41.4234 16.9398H39.4427V5.35968H41.4234V16.9398Z" fill="white"/>
    <path d="M46.4647 5.35914L46.5289 6.8143C47.4135 5.70112 48.5698 5.14453 49.9968 5.14453C52.4438 5.14453 53.6784 6.52548 53.7004 9.28737V16.9402H51.7198V9.27634C51.7127 8.44095 51.5222 7.82419 51.1471 7.42404C50.7721 7.0249 50.1884 6.82433 49.3971 6.82433C48.7543 6.82433 48.1907 6.99582 47.7053 7.3378C47.2199 7.68078 46.8418 8.13006 46.5711 8.68765V16.9402H44.5904V5.35914H46.4647Z" fill="white"/>
    <path d="M56.2156 11.0534C56.2156 9.24826 56.6338 7.81215 57.4682 6.7451C58.3026 5.67806 59.4088 5.14453 60.7867 5.14453C62.1997 5.14453 63.3019 5.64396 64.0941 6.64281L64.1904 5.35914H65.9996V16.6624C65.9996 18.1607 65.5553 19.3421 64.6668 20.2046C63.7782 21.068 62.5848 21.5003 61.0866 21.5003C60.2512 21.5003 59.4348 21.3218 58.6355 20.9647C57.8363 20.6087 57.2265 20.1193 56.8053 19.4985L57.8323 18.3101C58.6817 19.3591 59.7196 19.8836 60.9472 19.8836C61.9099 19.8836 62.6611 19.6119 63.2006 19.0693C63.7401 18.5268 64.0089 17.7636 64.0089 16.7788V15.7839C63.2166 16.6965 62.1356 17.1538 60.7656 17.1538C59.4098 17.1538 58.3126 16.6073 57.4742 15.5152C56.6358 14.424 56.2166 12.9358 56.2166 11.0524L56.2156 11.0534ZM58.2063 11.2781C58.2063 12.5848 58.4741 13.6097 59.0086 14.3558C59.5441 15.101 60.2933 15.474 61.257 15.474C62.5056 15.474 63.4222 14.9064 64.0079 13.7722V8.48508C63.4022 7.37892 62.4916 6.82634 61.2781 6.82634C60.3154 6.82634 59.5622 7.20041 59.0197 7.94955C58.4771 8.69869 58.2063 9.80886 58.2063 11.2781Z" fill="white"/>
    <path d="M81.0164 12.4452L83.1144 1.35547H86.3145L82.8577 16.94H79.6254L77.0882 6.51421L74.5519 16.94H71.3187L67.8618 1.35547H71.062L73.171 12.4231L75.7403 1.35547H78.4591L81.0164 12.4452Z" fill="#F7F7F7"/>
    <path d="M87.0316 11.0424C87.0316 9.89307 87.2522 8.86915 87.6955 7.97058C88.1378 7.07201 88.7746 6.37602 89.606 5.88362C90.4373 5.39121 91.4021 5.14551 92.5012 5.14551C94.0647 5.14551 95.3394 5.62387 96.3282 6.57961C97.316 7.53634 97.8676 8.83505 97.9819 10.4767L98.003 11.269C98.003 13.0451 97.5065 14.4701 96.5147 15.5452C95.5229 16.6183 94.1921 17.1558 92.5223 17.1558C90.8525 17.1558 89.5197 16.6203 88.5249 15.5492C87.53 14.4782 87.0316 13.023 87.0316 11.1828V11.0434V11.0424ZM90.1245 11.262C90.1245 12.3631 90.331 13.2045 90.7452 13.7872C91.1594 14.3699 91.7511 14.6607 92.5213 14.6607C93.2704 14.6607 93.8561 14.3729 94.2763 13.7982C94.6975 13.2226 94.9081 12.303 94.9081 11.0373C94.9081 9.95926 94.6975 9.12287 94.2763 8.52918C93.8551 7.93548 93.2624 7.63863 92.4992 7.63863C91.7431 7.63863 91.1584 7.93448 90.7442 8.52416C90.33 9.11385 90.1245 10.0265 90.1245 11.262Z" fill="#F7F7F7"/>
    <path d="M106.416 8.25843C105.995 8.20126 105.624 8.17318 105.303 8.17318C104.133 8.17318 103.365 8.56932 103.001 9.36158V16.9402H99.9085V5.35914H102.831L102.916 6.73909C103.537 5.67605 104.396 5.14453 105.495 5.14453C105.838 5.14453 106.159 5.19066 106.459 5.28393L106.416 8.25843Z" fill="#F7F7F7"/>
    <path d="M111.169 16.941H108.065V0.5H111.169V16.941Z" fill="#F7F7F7"/>
    <path d="M113.234 11.0642C113.234 9.25903 113.64 7.82092 114.449 6.74986C115.258 5.6798 116.366 5.14427 117.772 5.14427C118.9 5.14427 119.831 5.56547 120.566 6.40788V0.5H123.67V16.941H120.876L120.727 15.7095C119.956 16.6732 118.964 17.1546 117.751 17.1546C116.389 17.1546 115.294 16.617 114.471 15.544C113.647 14.4699 113.234 12.9766 113.234 11.0642ZM116.327 11.2938C116.327 12.3799 116.516 13.2123 116.894 13.791C117.272 14.3706 117.822 14.6595 118.543 14.6595C119.499 14.6595 120.173 14.2563 120.566 13.448V8.87092C120.181 8.06361 119.513 7.65946 118.565 7.65946C117.073 7.65946 116.327 8.87092 116.327 11.2938Z" fill="#F7F7F7"/>
  </g>
  <defs>
    <clipPath id="clip0_806_2585">
      <rect width="123.67" height="21" fill="white" transform="translate(0 0.5)"/>
    </clipPath>
  </defs>
</svg>